<?xml version="1.0" encoding="UTF-8"?>
<svg id="Layer_1" data-name="Layer 1" xmlns="http://www.w3.org/2000/svg" viewBox="0 0 41.56 41.56">
  <defs>
    <style>
      .cls-1 {
        fill: #6d80fd;
      }

      .cls-2 {
        fill: #5165e1;
      }
    </style>
  </defs>
  <path class="cls-1" d="M20.28,10.7c.16,0,.33-.01.5-.01s.33,0,.5.01L21.8.03c-.34-.02-.68-.03-1.02-.03s-.68,0-1.02.03l.52,10.67Z"/>
  <path class="cls-1" d="M18.33,10.99c.32-.08.64-.14.97-.19L17.73.22c-.67.1-1.34.23-2,.4l2.6,10.37Z"/>
  <path class="cls-1" d="M22.26,10.79c.33.05.65.11.97.19L25.83.62c-.66-.17-1.33-.3-2-.4l-1.57,10.57Z"/>
  <path class="cls-1" d="M16.92,11.45c.15-.06.31-.12.46-.18L13.78,1.21c-.32.11-.64.24-.95.37-.31.13-.63.27-.93.41l4.57,9.66c.15-.07.3-.14.45-.2Z"/>
  <path class="cls-1" d="M24.18,11.28c.16.06.31.11.46.18.15.06.3.13.45.2L29.66,1.99c-.31-.15-.62-.28-.93-.41-.31-.13-.63-.25-.95-.37l-3.6,10.06Z"/>
  <path class="cls-1" d="M14.77,12.67c.27-.2.54-.38.82-.55L10.1,2.96c-.58.35-1.15.73-1.7,1.13l6.37,8.58Z"/>
  <path class="cls-1" d="M25.97,12.12c.28.17.56.35.82.55l6.37-8.58c-.55-.41-1.11-.78-1.7-1.13l-5.49,9.17Z"/>
  <path class="cls-1" d="M13.64,13.64c.12-.12.24-.23.36-.34l-7.18-7.92c-.25.23-.5.46-.74.7-.24.24-.48.49-.7.74l7.92,7.18c.11-.12.22-.24.34-.36Z"/>
  <path class="cls-1" d="M27.56,13.3c.12.11.24.22.36.34.12.12.23.24.34.36l7.92-7.18c-.23-.25-.46-.5-.7-.74-.24-.24-.49-.48-.74-.7l-7.18,7.92Z"/>
  <path class="cls-1" d="M12.12,15.59c.17-.28.35-.56.55-.82l-8.58-6.37c-.41.55-.78,1.11-1.13,1.7l9.17,5.49Z"/>
  <path class="cls-1" d="M28.88,14.77c.2.27.38.54.55.82l9.17-5.49c-.35-.58-.73-1.15-1.13-1.7l-8.58,6.37Z"/>
  <path class="cls-1" d="M11.45,16.92c.06-.15.13-.3.2-.45L1.99,11.89c-.15.31-.28.62-.41.93-.13.31-.25.63-.37.95l10.06,3.6c.06-.16.12-.31.18-.46Z"/>
  <path class="cls-1" d="M29.9,16.46c.07.15.14.3.2.45.06.15.12.31.18.46l10.06-3.6c-.11-.32-.24-.64-.37-.95-.13-.31-.27-.63-.41-.93l-9.66,4.57Z"/>
  <path class="cls-1" d="M10.79,19.3c.05-.33.11-.65.19-.97L.62,15.73c-.17.66-.3,1.33-.4,2l10.57,1.57Z"/>
  <path class="cls-1" d="M30.57,18.33c.08.32.14.64.19.97l10.57-1.57c-.1-.67-.23-1.34-.4-2l-10.37,2.6Z"/>
  <path class="cls-1" d="M10.69,20.78c0-.17,0-.33.01-.5L.03,19.76c-.02.34-.03.68-.03,1.02,0,2.73.54,5.43,1.58,7.95,1.04,2.52,2.57,4.81,4.5,6.74,1.93,1.93,4.22,3.46,6.74,4.5,2.52,1.04,5.22,1.58,7.95,1.58s5.43-.54,7.95-1.58c2.52-1.04,4.81-2.57,6.74-4.5,1.93-1.93,3.46-4.22,4.5-6.74,1.04-2.52,1.58-5.22,1.58-7.95,0-.34,0-.68-.02-1.02l-10.67.52c0,.16.01.33.01.5,0,1.33-.26,2.64-.77,3.86-.51,1.22-1.25,2.34-2.19,3.27-.94.94-2.05,1.68-3.27,2.19-1.22.51-2.54.77-3.86.77s-2.64-.26-3.86-.77c-1.22-.51-2.34-1.25-3.27-2.19-.94-.94-1.68-2.05-2.19-3.27-.51-1.22-.77-2.54-.77-3.86Z"/>
  <path class="cls-2" d="M20.78,10.69c-.17,0-.33,0-.5.01l-.2-4.05c.46-.2.93-.38,1.41-.53l-.23,4.58c-.16,0-.33-.01-.5-.01Z"/>
  <path class="cls-2" d="M23.01,5.72l-.75,5.08c.33.05.65.11.97.19l1.38-5.52c-.54.05-1.08.14-1.6.25Z"/>
  <path class="cls-2" d="M26.28,5.39l-2.1,5.88c.16.06.31.12.46.18.15.06.3.13.45.2l2.91-6.15c-.56-.07-1.14-.1-1.72-.11Z"/>
  <path class="cls-2" d="M29.75,5.81l-3.78,6.31c.28.17.56.35.82.55l4.7-6.33c-.56-.21-1.15-.38-1.74-.53Z"/>
  <path class="cls-2" d="M33.19,7.08l-5.63,6.22c.12.11.24.22.36.34.12.12.23.24.34.36l6.56-5.95c-.52-.35-1.06-.68-1.63-.97Z"/>
  <path class="cls-2" d="M36.34,9.23l-7.46,5.53c.2.27.38.54.55.82l8.29-4.97c-.43-.49-.89-.95-1.38-1.38Z"/>
  <path class="cls-2" d="M38.94,12.19l-9.04,4.27c.07.15.14.3.2.45.06.15.12.31.18.46l9.67-3.46c-.3-.6-.64-1.18-1.01-1.73Z"/>
  <path class="cls-2" d="M40.73,15.78l-10.16,2.54c.08.32.14.64.19.97l10.5-1.56c-.13-.67-.31-1.32-.53-1.96Z"/>
  <path class="cls-2" d="M41.52,19.76l-10.66.52c0,.16.01.33.01.5,0,1.33-.26,2.64-.77,3.86-.51,1.22-1.25,2.34-2.19,3.27-.94.94-2.05,1.68-3.27,2.19-1.22.51-2.54.77-3.86.77s-2.64-.26-3.86-.77c-1.22-.51-2.34-1.25-3.27-2.19-.94-.94-1.68-2.05-2.19-3.27-.2-.48-.36-.98-.49-1.49,1.14,7.37,7.51,13.01,15.2,13.01,8.5,0,15.38-6.89,15.38-15.38,0-.34-.01-.68-.03-1.02Z"/>
  <path class="cls-2" d="M10.97,18.41s.01-.05.02-.08h0s0,.05-.01.08Z"/>
  <path class="cls-2" d="M11.17,17.34l.1.04c.06-.16.11-.31.18-.46.06-.15.13-.3.2-.45l-.22-.11c-.1.32-.18.65-.26.98Z"/>
  <path class="cls-2" d="M11.76,15.37l.36.22c.17-.28.35-.56.55-.82l-.5-.37c-.15.32-.28.65-.41.98Z"/>
  <path class="cls-2" d="M12.66,13.42l.64.58c.11-.12.22-.24.34-.36.12-.12.24-.23.36-.34l-.77-.85c-.2.31-.39.64-.57.97Z"/>
  <path class="cls-2" d="M13.9,11.5l.87,1.17c.27-.2.54-.38.82-.55l-.93-1.55c-.27.3-.52.61-.76.93Z"/>
  <path class="cls-2" d="M15.53,9.67l.94,1.98c.15-.07.3-.14.45-.2.15-.06.31-.12.46-.18l-.88-2.46c-.34.27-.66.56-.97.86Z"/>
  <path class="cls-2" d="M17.58,8.01l.75,2.97c.32-.08.64-.14.97-.19l-.52-3.51c-.41.23-.81.47-1.2.73Z"/>
</svg>