<svg width="44" height="44" viewBox="0 0 44 44" fill="none" xmlns="http://www.w3.org/2000/svg">
<path d="M21.5052 11.9201C21.67 11.912 21.8351 11.9079 22.0004 11.9079C22.1658 11.9079 22.3309 11.912 22.4956 11.9201L23.0199 1.24719C22.6808 1.23053 22.3408 1.22217 22.0004 1.22217C21.6601 1.22217 21.3202 1.23053 20.9809 1.24719L21.5052 11.9201Z" fill="url(#paint0_linear_3387_7742)"/>
<path d="M19.5482 12.2103C19.8687 12.1301 20.1929 12.0656 20.5196 12.0171L18.9517 1.44706C18.279 1.54685 17.6116 1.6796 16.9519 1.84485L19.5482 12.2103Z" fill="url(#paint1_linear_3387_7742)"/>
<path d="M23.4813 12.0171C23.808 12.0656 24.1322 12.1301 24.4526 12.2103L27.049 1.84485C26.3893 1.67961 25.7219 1.54685 25.0492 1.44706L23.4813 12.0171Z" fill="url(#paint2_linear_3387_7742)"/>
<path d="M18.1384 12.6761C18.2911 12.6128 18.4452 12.5534 18.6006 12.4978L15.0006 2.43675C14.6808 2.55118 14.3636 2.67354 14.0491 2.80378C13.7347 2.93403 13.4238 3.07184 13.1168 3.21705L17.6855 12.8768C17.8346 12.8063 17.9856 12.7394 18.1384 12.6761Z" fill="url(#paint3_linear_3387_7742)"/>
<path d="M25.4003 12.4978C25.5557 12.5534 25.7098 12.6128 25.8625 12.6761C26.0153 12.7394 26.1662 12.8063 26.3153 12.8768L30.8841 3.21706C30.577 3.07184 30.2662 2.93403 29.9518 2.80378C29.6373 2.67354 29.32 2.55118 29.0003 2.43675L25.4003 12.4978Z" fill="url(#paint4_linear_3387_7742)"/>
<path d="M15.9886 13.8939C16.2539 13.6972 16.5288 13.5135 16.8121 13.3437L11.3185 4.17825C10.7352 4.52789 10.1694 4.90595 9.62312 5.31107L15.9886 13.8939Z" fill="url(#paint5_linear_3387_7742)"/>
<path d="M27.1888 13.3437C27.4721 13.5135 27.747 13.6972 28.0123 13.8939L34.3778 5.31108C33.8315 4.90595 33.2657 4.52789 32.6823 4.17826L27.1888 13.3437Z" fill="url(#paint6_linear_3387_7742)"/>
<path d="M14.8643 14.8638C14.9812 14.7469 15.1008 14.633 15.223 14.5222L8.04691 6.60463C7.79527 6.83272 7.54898 7.06719 7.30833 7.30784C7.06768 7.5485 6.83321 7.79478 6.60512 8.04642L14.5227 15.2225C14.6335 15.1003 14.7474 14.9807 14.8643 14.8638Z" fill="url(#paint7_linear_3387_7742)"/>
<path d="M28.7779 14.5222C28.9001 14.633 29.0197 14.7469 29.1366 14.8638C29.2535 14.9807 29.3674 15.1003 29.4782 15.2226L37.3958 8.04642C37.1677 7.79478 36.9332 7.5485 36.6926 7.30784C36.4519 7.06719 36.2056 6.83272 35.954 6.60463L28.7779 14.5222Z" fill="url(#paint8_linear_3387_7742)"/>
<path d="M13.3442 16.8116C13.514 16.5283 13.6976 16.2534 13.8944 15.9881L5.31157 9.62263C4.90644 10.1689 4.52838 10.7347 4.17874 11.318L13.3442 16.8116Z" fill="url(#paint9_linear_3387_7742)"/>
<path d="M30.1065 15.9881C30.3032 16.2534 30.4869 16.5283 30.6567 16.8116L39.8221 11.318C39.4725 10.7347 39.0945 10.1689 38.6893 9.62263L30.1065 15.9881Z" fill="url(#paint10_linear_3387_7742)"/>
<path d="M12.6766 18.1379C12.7399 17.9851 12.8068 17.8341 12.8773 17.6851L3.21755 13.1163C3.07233 13.4233 2.93451 13.7342 2.80427 14.0486C2.67403 14.3631 2.55166 14.6804 2.43724 15.0001L12.4983 18.6001C12.5539 18.4447 12.6133 18.2906 12.6766 18.1379Z" fill="url(#paint11_linear_3387_7742)"/>
<path d="M31.1236 17.6851C31.1941 17.8341 31.2611 17.9851 31.3243 18.1379C31.3876 18.2906 31.447 18.4447 31.5026 18.6001L41.5637 15.0001C41.4492 14.6804 41.3269 14.3631 41.1966 14.0487C41.0664 13.7342 40.9285 13.4233 40.7833 13.1163L31.1236 17.6851Z" fill="url(#paint12_linear_3387_7742)"/>
<path d="M12.0176 20.5191C12.0661 20.1924 12.1306 19.8682 12.2108 19.5478L1.84534 16.9514C1.68009 17.6111 1.54733 18.2785 1.44754 18.9512L12.0176 20.5191Z" fill="url(#paint13_linear_3387_7742)"/>
<path d="M31.7901 19.5478C31.8703 19.8682 31.9348 20.1924 31.9833 20.5191L42.5533 18.9512C42.4535 18.2785 42.3208 17.6111 42.1555 16.9514L31.7901 19.5478Z" fill="url(#paint14_linear_3387_7742)"/>
<path d="M11.9084 22C11.9084 21.8346 11.9125 21.6695 11.9205 21.5048L1.24768 20.9805C1.23102 21.3197 1.22266 21.6596 1.22266 22C1.22266 24.7285 1.76009 27.4304 2.80427 29.9512C3.84845 32.4721 5.37893 34.7627 7.30833 36.6921C9.23771 38.6214 11.5283 40.1519 14.0491 41.1961C16.57 42.2403 19.2719 42.7777 22.0004 42.7777C24.729 42.7777 27.4309 42.2403 29.9518 41.1961C32.4726 40.1519 34.7632 38.6214 36.6926 36.6921C38.6219 34.7627 40.1524 32.4721 41.1966 29.9512C42.2408 27.4304 42.7782 24.7285 42.7782 22C42.7782 21.6596 42.7699 21.3197 42.7532 20.9805L32.0803 21.5048C32.0884 21.6695 32.0925 21.8347 32.0925 22C32.0925 23.3253 31.8315 24.6376 31.3243 25.862C30.8171 27.0864 30.0738 28.199 29.1366 29.1361C28.1995 30.0733 27.0869 30.8166 25.8625 31.3238C24.6381 31.831 23.3257 32.092 22.0004 32.092C20.6751 32.092 19.3628 31.831 18.1384 31.3238C16.9139 30.8166 15.8014 30.0733 14.8643 29.1361C13.9271 28.199 13.1838 27.0864 12.6766 25.862C12.1694 24.6376 11.9084 23.3253 11.9084 22Z" fill="url(#paint15_linear_3387_7742)"/>
<path d="M22.0007 11.9076C21.8354 11.9076 21.6703 11.9117 21.5055 11.9198L21.3064 7.86673C21.7668 7.66819 22.2387 7.49144 22.721 7.33787L22.4959 11.9198C22.3311 11.9117 22.166 11.9076 22.0007 11.9076Z" fill="#5165E1"/>
<path d="M24.2346 6.94004L23.4815 12.0169C23.8083 12.0654 24.1325 12.1298 24.4529 12.2101L25.8348 6.69334C25.2926 6.74792 24.7587 6.83066 24.2346 6.94004Z" fill="#5165E1"/>
<path d="M27.5052 6.61572L25.4006 12.4976C25.556 12.5532 25.7101 12.6126 25.8628 12.6759C26.0155 12.7391 26.1665 12.8061 26.3156 12.8766L29.226 6.72326C28.6612 6.65622 28.0871 6.61983 27.5052 6.61572Z" fill="#5165E1"/>
<path d="M30.9712 7.03336L27.1891 13.3435C27.4724 13.5133 27.7472 13.6969 28.0126 13.8937L32.7108 7.5588C32.1458 7.3507 31.5652 7.17478 30.9712 7.03336Z" fill="#5165E1"/>
<path d="M34.4122 8.30574L28.7781 14.522C28.9004 14.6328 29.02 14.7467 29.1369 14.8636C29.2538 14.9804 29.3677 15.1001 29.4785 15.2223L36.0415 9.27385C35.5205 8.9191 34.9765 8.59548 34.4122 8.30574Z" fill="#5165E1"/>
<path d="M37.5648 10.4567L30.1067 15.9879C30.3035 16.2532 30.4872 16.528 30.657 16.8114L38.9483 11.8417C38.5169 11.3513 38.0547 10.8886 37.5648 10.4567Z" fill="#5165E1"/>
<path d="M40.1598 13.4111L31.1238 17.6848C31.1944 17.8339 31.2613 17.9849 31.3246 18.1376C31.3879 18.2904 31.4473 18.4445 31.5029 18.5998L41.1689 15.1413C40.8695 14.5412 40.5321 13.9634 40.1598 13.4111Z" fill="#5165E1"/>
<path d="M41.9488 17.003L31.7903 19.5475C31.8706 19.868 31.9351 20.1922 31.9836 20.5189L42.4787 18.9621C42.3445 18.2923 42.1669 17.6383 41.9488 17.003Z" fill="#5165E1"/>
<path d="M42.7453 20.9806L32.0806 21.5045C32.0887 21.6693 32.0928 21.8344 32.0928 21.9997C32.0928 23.325 31.8317 24.6374 31.3246 25.8618C30.8174 27.0862 30.074 28.1988 29.1369 29.1359C28.1997 30.073 27.0872 30.8164 25.8628 31.3236C24.6384 31.8308 23.326 32.0918 22.0007 32.0918C20.6754 32.0918 19.3631 31.8308 18.1387 31.3236C16.9142 30.8164 15.8017 30.073 14.8645 29.1359C13.9274 28.1988 13.184 27.0862 12.6769 25.8618C12.4762 25.3774 12.3141 24.8793 12.1915 24.372C13.3322 31.7422 19.7043 37.3841 27.394 37.3841C35.8906 37.3841 42.7785 30.4963 42.7785 21.9997C42.7785 21.6573 42.7673 21.3175 42.7453 20.9806Z" fill="#5165E1"/>
<path d="M12.1914 19.6276C12.1979 19.6009 12.2044 19.5742 12.2111 19.5475L12.2043 19.5458C12.1999 19.5731 12.1956 19.6003 12.1914 19.6276Z" fill="#5165E1"/>
<path d="M12.395 18.5628L12.4986 18.5998C12.5542 18.4445 12.6136 18.2904 12.6769 18.1376C12.7401 17.9849 12.8071 17.8339 12.8776 17.6848L12.6542 17.5791C12.5573 17.9027 12.4708 18.2306 12.395 18.5628Z" fill="#5165E1"/>
<path d="M12.9854 16.5961L13.3445 16.8114C13.5143 16.528 13.6979 16.2532 13.8947 15.9879L13.3927 15.6155C13.246 15.9366 13.1102 16.2637 12.9854 16.5961Z" fill="#5165E1"/>
<path d="M13.8808 14.6402L14.523 15.2223C14.6338 15.1001 14.7477 14.9804 14.8645 14.8635C14.9814 14.7467 15.1011 14.6328 15.2233 14.522L14.4549 13.6742C14.2522 13.9885 14.0607 14.3107 13.8808 14.6402Z" fill="#5165E1"/>
<path d="M15.1204 12.7227L15.9889 13.8937C16.2542 13.6969 16.529 13.5133 16.8124 13.3435L15.883 11.7929C15.617 12.0926 15.3626 12.4027 15.1204 12.7227Z" fill="#5165E1"/>
<path d="M16.748 10.8938L17.6858 12.8766C17.8349 12.8061 17.9859 12.7391 18.1387 12.6759C18.2914 12.6126 18.4455 12.5532 18.6008 12.4976L17.7203 10.0367C17.3842 10.3088 17.0598 10.5948 16.748 10.8938Z" fill="#5165E1"/>
<path d="M18.8034 9.23534L19.5485 12.2101C19.869 12.1298 20.1932 12.0654 20.5199 12.0169L19.9991 8.5059C19.5888 8.73122 19.1899 8.97474 18.8034 9.23534Z" fill="#5165E1"/>
<defs>
<linearGradient id="paint0_linear_3387_7742" x1="-4.8029" y1="-3.55673" x2="40.3888" y2="42.7777" gradientUnits="userSpaceOnUse">
<stop offset="0.0363151" stop-color="#3B53F1"/>
<stop offset="0.524591" stop-color="#6D80FD"/>
<stop offset="1" stop-color="#C9D0FE"/>
</linearGradient>
<linearGradient id="paint1_linear_3387_7742" x1="-4.8029" y1="-3.55673" x2="40.3888" y2="42.7777" gradientUnits="userSpaceOnUse">
<stop offset="0.0363151" stop-color="#3B53F1"/>
<stop offset="0.524591" stop-color="#6D80FD"/>
<stop offset="1" stop-color="#C9D0FE"/>
</linearGradient>
<linearGradient id="paint2_linear_3387_7742" x1="-4.8029" y1="-3.55673" x2="40.3888" y2="42.7777" gradientUnits="userSpaceOnUse">
<stop offset="0.0363151" stop-color="#3B53F1"/>
<stop offset="0.524591" stop-color="#6D80FD"/>
<stop offset="1" stop-color="#C9D0FE"/>
</linearGradient>
<linearGradient id="paint3_linear_3387_7742" x1="-4.8029" y1="-3.55673" x2="40.3888" y2="42.7777" gradientUnits="userSpaceOnUse">
<stop offset="0.0363151" stop-color="#3B53F1"/>
<stop offset="0.524591" stop-color="#6D80FD"/>
<stop offset="1" stop-color="#C9D0FE"/>
</linearGradient>
<linearGradient id="paint4_linear_3387_7742" x1="-4.8029" y1="-3.55673" x2="40.3888" y2="42.7777" gradientUnits="userSpaceOnUse">
<stop offset="0.0363151" stop-color="#3B53F1"/>
<stop offset="0.524591" stop-color="#6D80FD"/>
<stop offset="1" stop-color="#C9D0FE"/>
</linearGradient>
<linearGradient id="paint5_linear_3387_7742" x1="-4.8029" y1="-3.55673" x2="40.3888" y2="42.7777" gradientUnits="userSpaceOnUse">
<stop offset="0.0363151" stop-color="#3B53F1"/>
<stop offset="0.524591" stop-color="#6D80FD"/>
<stop offset="1" stop-color="#C9D0FE"/>
</linearGradient>
<linearGradient id="paint6_linear_3387_7742" x1="-4.8029" y1="-3.55673" x2="40.3888" y2="42.7777" gradientUnits="userSpaceOnUse">
<stop offset="0.0363151" stop-color="#3B53F1"/>
<stop offset="0.524591" stop-color="#6D80FD"/>
<stop offset="1" stop-color="#C9D0FE"/>
</linearGradient>
<linearGradient id="paint7_linear_3387_7742" x1="-4.8029" y1="-3.55673" x2="40.3888" y2="42.7777" gradientUnits="userSpaceOnUse">
<stop offset="0.0363151" stop-color="#3B53F1"/>
<stop offset="0.524591" stop-color="#6D80FD"/>
<stop offset="1" stop-color="#C9D0FE"/>
</linearGradient>
<linearGradient id="paint8_linear_3387_7742" x1="-4.8029" y1="-3.55673" x2="40.3888" y2="42.7777" gradientUnits="userSpaceOnUse">
<stop offset="0.0363151" stop-color="#3B53F1"/>
<stop offset="0.524591" stop-color="#6D80FD"/>
<stop offset="1" stop-color="#C9D0FE"/>
</linearGradient>
<linearGradient id="paint9_linear_3387_7742" x1="-4.8029" y1="-3.55673" x2="40.3888" y2="42.7777" gradientUnits="userSpaceOnUse">
<stop offset="0.0363151" stop-color="#3B53F1"/>
<stop offset="0.524591" stop-color="#6D80FD"/>
<stop offset="1" stop-color="#C9D0FE"/>
</linearGradient>
<linearGradient id="paint10_linear_3387_7742" x1="-4.8029" y1="-3.55673" x2="40.3888" y2="42.7777" gradientUnits="userSpaceOnUse">
<stop offset="0.0363151" stop-color="#3B53F1"/>
<stop offset="0.524591" stop-color="#6D80FD"/>
<stop offset="1" stop-color="#C9D0FE"/>
</linearGradient>
<linearGradient id="paint11_linear_3387_7742" x1="-4.8029" y1="-3.55673" x2="40.3888" y2="42.7777" gradientUnits="userSpaceOnUse">
<stop offset="0.0363151" stop-color="#3B53F1"/>
<stop offset="0.524591" stop-color="#6D80FD"/>
<stop offset="1" stop-color="#C9D0FE"/>
</linearGradient>
<linearGradient id="paint12_linear_3387_7742" x1="-4.8029" y1="-3.55673" x2="40.3888" y2="42.7777" gradientUnits="userSpaceOnUse">
<stop offset="0.0363151" stop-color="#3B53F1"/>
<stop offset="0.524591" stop-color="#6D80FD"/>
<stop offset="1" stop-color="#C9D0FE"/>
</linearGradient>
<linearGradient id="paint13_linear_3387_7742" x1="-4.8029" y1="-3.55673" x2="40.3888" y2="42.7777" gradientUnits="userSpaceOnUse">
<stop offset="0.0363151" stop-color="#3B53F1"/>
<stop offset="0.524591" stop-color="#6D80FD"/>
<stop offset="1" stop-color="#C9D0FE"/>
</linearGradient>
<linearGradient id="paint14_linear_3387_7742" x1="-4.8029" y1="-3.55673" x2="40.3888" y2="42.7777" gradientUnits="userSpaceOnUse">
<stop offset="0.0363151" stop-color="#3B53F1"/>
<stop offset="0.524591" stop-color="#6D80FD"/>
<stop offset="1" stop-color="#C9D0FE"/>
</linearGradient>
<linearGradient id="paint15_linear_3387_7742" x1="-4.8029" y1="-3.55673" x2="40.3888" y2="42.7777" gradientUnits="userSpaceOnUse">
<stop offset="0.0363151" stop-color="#3B53F1"/>
<stop offset="0.524591" stop-color="#6D80FD"/>
<stop offset="1" stop-color="#C9D0FE"/>
</linearGradient>
</defs>
</svg>
